<?xml version="1.0" encoding="utf-8"?>
<!-- Generator: Adobe Illustrator 19.2.0, SVG Export Plug-In . SVG Version: 6.00 Build 0)  -->
<svg version="1.1" id="Layer_1" xmlns="http://www.w3.org/2000/svg" xmlns:xlink="http://www.w3.org/1999/xlink" x="0px" y="0px"
	 viewBox="0 0 150 150" style="enable-background:new 0 0 150 150;" xml:space="preserve">
<style type="text/css">
	.st0{fill:#C29F54;}
	.st1{fill:#FFFFFF;}
	.st2{fill:#FD94FF;}
	.st3{fill:#72A788;}
	.st4{fill:#A2DDD1;}
	.st5{fill:#5D8B71;}
	.st6{fill:#E6E4DA;}
	.st7{fill:#8BB9B1;}
	.st8{fill:#365C3C;}
	.st9{fill:#F8F8F5;}
	.st10{fill:#E9E9E7;}
	.st11{fill:#C6D6A3;}
	.st12{fill:#A6BB88;}
	.st13{fill:#7A9E5B;}
	.st14{fill:#FFFCE6;}
	.st15{fill:#F37A5D;}
	.st16{fill:#DC6F54;}
	.st17{fill:#B89278;}
	.st18{fill:#A3826B;}
	.st19{fill:#EBE9D7;}
	.st20{fill:#84655A;}
	.st21{fill:#FFD425;}
	.st22{fill:#FFC628;}
	.st23{fill:#FFBA08;}
	.st24{fill:#937C66;}
	.st25{fill:#A58B71;}
	.st26{fill:#9D856C;}
	.st27{fill:#AE9277;}
	.st28{fill:#8C7661;}
	.st29{fill:#FCEF98;}
	.st30{fill:#E4E3D3;}
	.st31{fill:#B97595;}
	.st32{fill:#6D503E;}
	.st33{fill:#C2D4DD;}
	.st34{fill:#915B76;}
	.st35{fill:#D1D0C3;}
	.st36{fill:#B7C9D1;}
	.st37{fill:#A96B89;}
	.st38{fill:#674B3A;}
	.st39{fill:#FFFDE7;}
	.st40{fill:#D385A9;}
	.st41{fill:#7B5A46;}
	.st42{fill:#D9E6ED;}
	.st43{fill:#EFEFE1;}
	.st44{fill:#0D6EA9;}
	.st45{fill:#B33335;}
	.st46{fill:#E59B30;}
	.st47{fill:#A6A8AB;}
	.st48{fill:#3A704D;}
	.st49{fill:#58595B;}
	.st50{fill:#414042;}
	.st51{fill:#2B496C;}
	.st52{fill:#B2B5B7;}
	.st53{fill:#302B29;}
	.st54{fill:#D5C7A7;}
	.st55{fill:#C0AE8C;}
	.st56{fill:#203C5E;}
	.st57{fill:#A5A8A7;}
	.st58{fill:#201D1C;}
	.st59{fill:#FBCE3F;}
	.st60{fill:#F8BD32;}
	.st61{fill:#654D31;}
	.st62{fill:#EBA537;}
	.st63{fill:#A1485F;}
	.st64{fill:#E1BEA1;}
	.st65{fill:#924055;}
	.st66{fill:#B25169;}
	.st67{fill:#FACFE2;}
	.st68{fill:#F9C5DC;}
	.st69{fill:#D1B297;}
	.st70{fill:#753E56;}
	.st71{fill:#BC6254;}
	.st72{fill:#B15C4F;}
	.st73{fill:#90AA4E;}
	.st74{fill:#859D47;}
	.st75{fill:#627738;}
	.st76{fill:#7F9842;}
	.st77{fill:#77903C;}
	.st78{fill:#9A4F44;}
	.st79{fill:#8FD2E6;}
	.st80{fill:#78CBE4;}
	.st81{fill:#35B8CC;}
	.st82{fill:#00A1B6;}
	.st83{fill:#FFFDB9;}
	.st84{fill:#FFF68A;}
	.st85{fill:#FFE86A;}
	.st86{fill:#FFE142;}
	.st87{fill:#FFA1E9;}
	.st88{fill:#FF90E6;}
	.st89{fill:#E147BB;}
	.st90{fill:#DF3FAF;}
	.st91{fill:#925BD1;}
	.st92{fill:#FFD700;}
	.st93{fill:#FFEE75;}
	.st94{fill:#B3237A;}
	.st95{fill:#FF7CDC;}
	.st96{fill:#007E93;}
	.st97{fill:#5AB2D3;}
	.st98{fill:#72C9CB;}
	.st99{fill:#E5E6E7;}
	.st100{fill:#8094A1;}
	.st101{fill:#6D5A4D;}
	.st102{fill:#ACC665;}
	.st103{fill:#EDDD42;}
	.st104{fill:#EBC919;}
	.st105{fill:#9CB45C;}
	.st106{fill:#EBD339;}
	.st107{fill:#A4BD61;}
	.st108{fill:#808184;}
	.st109{fill:#F3869B;}
	.st110{fill:#FDE2DD;}
	.st111{fill:#ECCACA;}
	.st112{fill:#F593A2;}
	.st113{fill:#FFD76D;}
	.st114{fill:#E3C063;}
	.st115{fill:#E37D91;}
	.st116{fill:#CA7083;}
	.st117{fill:#FFE27A;}
	.st118{fill:#48484A;}
	.st119{fill:#424244;}
	.st120{fill:#6B5C4E;}
	.st121{fill:#D9F1F4;}
	.st122{fill:#3F3E40;}
	.st123{fill:#9BBECA;}
	.st124{fill:#564A3E;}
	.st125{fill:#B8D9E2;}
	.st126{fill:#645649;}
	.st127{fill:#766556;}
	.st128{fill:#353738;}
	.st129{fill:#333132;}
	.st130{fill:#3B3B3C;}
	.st131{fill:#231F20;}
	.st132{fill:#D0D2D3;}
	.st133{fill:#6ECAF3;}
	.st134{fill:#CED0D1;}
	.st135{fill:#F6CC78;}
	.st136{fill:#BBBDBF;}
	.st137{fill:#FFB4D3;}
	.st138{opacity:0.2;fill:#FFFFFF;}
	.st139{fill:#9D6F4A;}
	.st140{fill:#A97A4F;}
	.st141{fill:#FEC844;}
	.st142{fill:#C32A30;}
	.st143{fill:#A72226;}
	.st144{fill:#DCA43B;}
	.st145{fill:#8A171A;}
	.st146{fill:#8B6540;}
	.st147{fill:#5DFDFF;}
	.st148{fill:#8B1D24;}
	.st149{fill:#A72730;}
	.st150{fill:#770D18;}
	.st151{fill:#5D050C;}
	.st152{fill:#63C4DE;}
</style>
<g>
	<circle class="st14" cx="74.962" cy="130.888" r="11.935"/>
	<path class="st15" d="M79.634,53.276c1.21-8.13-0.29-16.45-4.89-23.37l0.87-0.58c1.71-2.45,3.66-4.8,5.87-7
		c17.33-17.34,42.96-19.82,57.24-5.54c14.27,14.28,11.79,39.9-5.54,57.24c-2.21,2.2-4.56,4.16-7.01,5.86
		c-7.02,4.9-15.58,6.52-23.94,5.28l-24.34-24.33c0.11-0.67,0.27-1.33,0.47-1.98C78.924,57.016,79.354,55.156,79.634,53.276z"/>
	<path class="st16" d="M79.634,53.276c-0.28,1.88-0.71,3.74-1.27,5.58c-0.2,0.65-0.36,1.31-0.47,1.98l24.34,24.33
		c4.686,0.695,9.435,0.49,13.941-0.686l-4.846-4.039l-6.17-5.14c-5.17-4.86-7.53-11.24-6.48-17.25c0.11-0.67,0.27-1.33,0.47-1.98
		c0.56-1.84,0.99-3.7,1.27-5.58c1.21-8.13-0.29-16.45-4.89-23.37c-0.13-0.2-0.26-0.39-0.39-0.58c-1.7-2.45-3.66-4.8-5.86-7
		c-0.721-0.721-1.46-1.409-2.208-2.078c-1.935,1.466-3.807,3.082-5.587,4.863c-2.21,2.2-4.16,4.55-5.87,7l-0.87,0.58
		C79.345,36.826,80.845,45.146,79.634,53.276z"/>
	<path class="st17" d="M77.894,60.836c-1.05,6.01,1.31,12.39,6.48,17.25l6.17,5.14l17.36,14.47c1.64,1.36,1.75,3.85,0.24,5.36
		l-10.62,10.62c-1.51,1.51-3.99,1.4-5.36-0.24l-17.17-20.61l-2.44-2.93c-3.96-4.22-8.95-6.57-13.92-6.7
		c-1.79-0.06-3.57,0.17-5.3,0.7c-1.84,0.56-3.71,0.99-5.59,1.27l31.89-31.89c-0.28,1.88-0.71,3.74-1.27,5.58
		C78.164,59.506,78.004,60.166,77.894,60.836z"/>
	<path class="st18" d="M77.894,60.836l24.34,24.33c-1.88-0.28-3.75-0.71-5.59-1.27c-2-0.61-4.05-0.82-6.1-0.67l-6.17-5.14
		C79.204,73.226,76.844,66.846,77.894,60.836z"/>
	<path class="st17" d="M72.554,89.896l2.44,2.93l-0.04,0.03l-17.14,20.58c-1.37,1.64-3.85,1.75-5.36,0.24l-10.62-10.62
		c-1.51-1.51-1.4-4,0.24-5.36l16.54-13.79l0.02-0.71C63.604,83.326,68.594,85.676,72.554,89.896z"/>
	<path class="st19" d="M76.794,130.886c0-4.783-2.819-8.895-6.881-10.798c1.536-0.719,3.244-1.132,5.051-1.132
		c6.59,0,11.93,5.34,11.93,11.93c0,6.59-5.34,11.94-11.93,11.94c-1.807,0-3.515-0.414-5.051-1.134
		C73.975,139.786,76.794,135.668,76.794,130.886z"/>
	<path class="st15" d="M74.744,29.906c4.6,6.92,6.1,15.24,4.89,23.37l-31.89,31.89c-8.36,1.24-16.92-0.38-23.95-5.28
		c-2.44-1.7-4.79-3.66-7-5.86c-17.33-17.34-19.81-42.96-5.54-57.24c14.28-14.28,39.9-11.8,57.24,5.54c2.2,2.2,4.16,4.55,5.86,7
		C74.484,29.516,74.614,29.706,74.744,29.906z"/>
	<g>
		<path class="st20" d="M140.139,15.372c-7.336-7.338-17.661-10.767-29.083-9.664c-11.272,1.091-22.277,6.49-30.982,15.2
			c-1.825,1.817-3.526,3.797-5.087,5.889c-1.535-2.062-3.231-4.039-5.078-5.886C51.821,2.824,24.874,0.339,9.84,15.372
			c-15.022,15.034-12.537,41.98,5.544,60.072c2.269,2.258,4.714,4.305,7.267,6.082c7.158,4.989,16.176,6.982,25.389,5.618
			c1.585-0.236,3.194-0.585,4.801-1.028l-12.042,10.04c-1.211,1.005-1.949,2.485-2.022,4.062c-0.074,1.583,0.525,3.132,1.645,4.251
			l10.62,10.62c1.057,1.058,2.498,1.651,3.987,1.651c0.083,0,0.166-0.002,0.25-0.006c1.576-0.07,3.061-0.806,4.074-2.019
			l15.637-18.775l15.642,18.777c1.012,1.212,2.497,1.946,4.074,2.017c0.083,0.004,0.166,0.006,0.249,0.006
			c1.489,0,2.93-0.595,3.986-1.651l10.62-10.62c1.119-1.118,1.718-2.668,1.645-4.25c-0.074-1.578-0.811-3.059-2.018-4.06
			L97.131,86.114c1.609,0.444,3.222,0.794,4.81,1.031c1.896,0.281,3.781,0.42,5.645,0.42c7.198,0,14.054-2.074,19.729-6.035
			c2.553-1.771,5.002-3.818,7.284-6.089C152.677,57.352,155.162,30.406,140.139,15.372z M24.937,78.244
			c-2.363-1.646-4.628-3.541-6.729-5.632C1.69,56.084-0.796,31.674,12.668,18.2C26.144,4.726,50.552,7.212,67.08,23.74
			c2.091,2.091,3.985,4.354,5.626,6.72c0.12,0.175,0.24,0.351,0.372,0.554c4.024,6.054,5.664,13.606,4.658,21.332L46.815,83.268
			C38.837,84.304,31.092,82.535,24.937,78.244z M56.279,112.154c-0.298,0.356-0.717,0.564-1.181,0.585
			c-0.462,0.017-0.9-0.148-1.229-0.478l-10.62-10.62c-0.33-0.33-0.499-0.769-0.477-1.236c0.021-0.462,0.228-0.877,0.584-1.173
			l16.54-13.79l-0.125-0.149c4.078,0.43,8.045,2.494,11.285,5.93l1.328,1.594L56.279,112.154z M107.207,100.405
			c0.022,0.468-0.147,0.906-0.477,1.236l-10.621,10.62c-0.329,0.329-0.768,0.496-1.229,0.478c-0.464-0.021-0.884-0.229-1.18-0.583
			l-19.61-23.54l-0.078-0.088c-4.298-4.582-9.741-7.186-15.311-7.331c-0.208-0.007-0.416-0.011-0.624-0.011
			c-1.339,0-2.667,0.148-3.965,0.438l21.981-21.981c-0.063,0.286-0.126,0.572-0.171,0.848c-1.165,6.666,1.482,13.788,7.08,19.051
			l23.624,19.693C106.98,99.528,107.186,99.943,107.207,100.405z M85.701,76.589c-3.341-3.158-5.398-7.072-5.912-11.03
			l16.088,16.081c-1.51-0.338-3.061-0.477-4.634-0.432L85.701,76.589z M131.774,72.608c-2.111,2.102-4.379,3.997-6.744,5.638
			c-6.145,4.289-13.889,6.056-21.866,5.021l-23.09-23.081c0.061-0.247,0.127-0.495,0.205-0.748c0.598-1.967,1.047-3.941,1.334-5.868
			c1.236-8.301-0.278-16.487-4.252-23.245c1.661-2.362,3.521-4.577,5.538-6.585c8.054-8.06,18.19-13.049,28.542-14.051
			c10.204-0.989,19.393,2.034,25.869,8.511C150.775,31.674,148.289,56.084,131.774,72.608z"/>
		<path class="st20" d="M74.954,116.956c-7.681,0-13.93,6.249-13.93,13.93c0,7.687,6.249,13.94,13.93,13.94
			c7.687,0,13.94-6.254,13.94-13.94C88.894,123.205,82.641,116.956,74.954,116.956z M74.954,140.826c-5.476,0-9.93-4.459-9.93-9.94
			c0-5.476,4.455-9.93,9.93-9.93c5.481,0,9.94,4.454,9.94,9.93C84.894,136.367,80.435,140.826,74.954,140.826z"/>
	</g>
</g>
</svg>
